<?xml version="1.0" encoding="UTF-8" standalone="no"?>
<svg
   viewBox="0 0 1480.5501 409.3"
   version="1.1"
   id="svg2"
   width="1480.55"
   height="409.29999"
   xmlns="http://www.w3.org/2000/svg"
   xmlns:svg="http://www.w3.org/2000/svg"
   xmlns:rdf="http://www.w3.org/1999/02/22-rdf-syntax-ns#"
   xmlns:cc="http://creativecommons.org/ns#"
   xmlns:dc="http://purl.org/dc/elements/1.1/">
  <defs
     id="defs1">
    <style
       id="style1">.cls-1{fill:none;}.cls-2{clip-path:url(#clip-path);}.cls-3{fill:#4b5c65;}.cls-4{fill:#00b7ac;}</style>
    <clipPath
       id="clip-path">
      <rect
         class="cls-1"
         width="343.28"
         height="138.39999"
         id="rect1"
         x="0"
         y="0" />
    </clipPath>
  </defs>
  <title
     id="title1">logo</title>
  <g
     id="Layer_2"
     data-name="Layer 2"
     transform="scale(5)">
    <g
       id="Layer_1-2"
       data-name="Layer 1">
      <g
         class="cls-2"
         clip-path="url(#clip-path)"
         id="g2">
        <path
           class="cls-3"
           d="m 34.71,40.1 c 0,7 -3.28,12.79 -11.35,12.79 -6.58,0 -10.89,-4.7 -10.89,-12.7 0,-8 4.32,-12.87 10.8,-12.87 7.69,0 11.44,5.87 11.44,12.78 m 6.2,36.42 C 44.47,73.3 46.62,68.8 46.62,62.17 V 18.59 H 34.34 v 4.95 h -0.2 C 31.26,19.59 26.84,17.28 20.83,17.28 8.63,17.28 0,26.3 0,40.38 0,54.63 10.5,62.91 21.2,62.91 A 15.71,15.71 0 0 0 33.78,57.39 H 34 v 5.15 c 0,6.44 -3.46,9.84 -10.68,9.84 -5.91,0 -8.64,-2.3 -9.66,-5.24 H 1 c 1.32,9.2 9.38,14.72 22.52,14.72 7.13,0 13.32,-1.65 17.36,-5.34 M 87.2,42.22 c 0,9.19 -4.41,15.35 -12.2,15.35 -7.79,0 -12.2,-6.16 -12.2,-15.35 0,-9.19 4.32,-15.46 12.2,-15.46 7.88,0 12.2,6.24 12.2,15.46 m 12.93,0 C 100.13,28.15 89.91,17.29 75,17.29 c -14.91,0 -25.14,10.85 -25.14,24.93 0,14.08 10.22,24.92 25.14,24.92 14.92,0 25.13,-10.85 25.13,-24.92 m 31.09,-12.89 h 0.28 V 18.4 a 8.37,8.37 0 0 0 -3,-0.38 c -5.64,0 -8.92,2.77 -11.84,8.1 h -0.28 v -7.54 h -12.27 v 47.18 h 12.75 v -23 c 0,-9.94 6,-14.26 14.36,-13.44 m 12.34,7.74 C 144.67,30.9 147.88,27 154.5,27 c 5.71,0 9.66,4.13 10,10.12 z m -0.19,8.65 h 34.21 c 0,-16.84 -8.1,-28.44 -23.27,-28.44 -13.79,0 -23.26,10.87 -23.26,24.84 0,13.97 8.82,25 24.46,25 12.15,0 19.6,-7.08 21.34,-15.45 h -12.33 c -1.38,3.58 -4.22,5.79 -9.11,5.79 -7.07,0 -11.11,-4.5 -12,-11.76 m 69.17,20 h 12.75 V 35 c 0,-10.31 -6.66,-17.68 -16.6,-17.68 -6.57,0 -11,2.68 -14.25,7.73 h -0.3 v -6.47 h -12.51 v 47.18 h 12.77 V 39 c 0,-6.44 4.12,-10.86 9.74,-10.86 5.35,0 8.36,3.6 8.36,8.65 z M 232,11.22 h 12.75 V 0 H 232 Z m 9.56,66.68 c 2.07,-2 3.19,-4.78 3.19,-10.3 v -49 H 232 V 67 c 0,4.32 -2.82,4.78 -8,4.87 v 8.92 a 44.2,44.2 0 0 0 7.24,0.55 c 4.12,0 7.87,-0.91 10.31,-3.4 m 41.54,-40.83 h -21 C 263.22,30.9 266.43,27 273.05,27 c 5.71,0 9.65,4.13 10,10.12 m 13.06,8.65 c 0,-16.84 -8.1,-28.44 -23.26,-28.44 -13.81,0 -23.28,10.87 -23.28,24.84 0,13.97 8.84,25 24.47,25 12.14,0 19.59,-7.08 21.34,-15.45 h -12.3 c -1.38,3.58 -4.23,5.79 -9.1,5.79 -7.09,0 -11.14,-4.5 -12.05,-11.76 z"
           id="path1" />
      </g>
    </g>
  </g>
  <metadata
     id="metadata2">
    <rdf:RDF>
      <cc:Work
         rdf:about="">
        <dc:title>logo</dc:title>
      </cc:Work>
    </rdf:RDF>
  </metadata>
</svg>
