<svg xmlns="http://www.w3.org/2000/svg" width="455.844" height="111.468" viewBox="0 0 455.844 111.468">
  <defs>
    <style>
      .cls-1 {
        fill: #06060a;
        fill-rule: evenodd;
      }
    </style>
  </defs>
  <path id="Forma_1_copia" data-name="Forma 1 copia" class="cls-1" d="M477.07,200.339l-0.921,3.522a11.273,11.273,0,0,0,4.973,1.023c3.646,0,7.354-1.318,7.354-5.73,0-4.149-5.512-4.938-5.512-7.075,0-1.356,1.582-1.717,2.852-1.717a9.729,9.729,0,0,1,3.483.792l0.916-3.327a18.211,18.211,0,0,0-4.621-.691c-3.361,0-7.067,1.418-7.067,5.4,0,4.247,5.512,4.509,5.512,7.243,0,1.386-1.489,1.879-2.917,1.879a7.739,7.739,0,0,1-4.052-1.317m-25.385-10.931-2.977,15.083h4.244l1.68-8.071c0.536-2.272,1.33-5.857,4.214-5.857a1.958,1.958,0,0,1,2,2.041,20.387,20.387,0,0,1-.542,3.618l-1.709,8.269h4.244l1.68-8.071c0.538-2.3,1.267-5.857,4.217-5.857a1.953,1.953,0,0,1,1.991,2.041,20.375,20.375,0,0,1-.537,3.618l-1.709,8.269h4.245l1.712-8.1a20.1,20.1,0,0,0,.728-4.612,4.627,4.627,0,0,0-4.531-4.642,6.213,6.213,0,0,0-5.734,3.226h-0.066c-0.221-2.039-2.218-3.226-4.149-3.226a5.892,5.892,0,0,0-5.006,2.668h-0.062l0.379-2.273h-3.96c-0.1.529-.222,1.218-0.349,1.877m-15.629,4.938c0.824-2.335,1.967-3.981,4.594-3.981,1.774,0,2.7,1.017,2.7,2.831a7.081,7.081,0,0,1-.1,1.15h-7.194Zm-4.626,3.129c0,5.035,3.172,7.409,7.86,7.409a17.42,17.42,0,0,0,5.195-.958l0.539-3.487a11.615,11.615,0,0,1-5,1.217c-2.917,0-4.532-1.152-4.532-4.281h11.5a18.833,18.833,0,0,0,.415-3.786c0-4.312-2.66-6.456-6.682-6.456-5.358,0-9.288,5.073-9.288,10.342m-11.661-6.72h3.074l-1.2,5.73a19.011,19.011,0,0,0-.542,3.954c0,3.257,2.032,4.445,4.914,4.445a11.453,11.453,0,0,0,2.28-.393l0.729-3.428a5.489,5.489,0,0,1-2.059.4,1.535,1.535,0,0,1-1.617-1.644,7.417,7.417,0,0,1,.19-1.646l1.552-7.414h3.806l0.66-3.224h-3.8l1.046-5.038-4.561,1.548-0.729,3.49h-3.074Zm-14.894,9.584-0.919,3.522a11.273,11.273,0,0,0,4.973,1.023c3.646,0,7.352-1.318,7.352-5.73,0-4.149-5.513-4.938-5.513-7.075,0-1.356,1.585-1.717,2.853-1.717a9.74,9.74,0,0,1,3.486.792l0.915-3.327a18.226,18.226,0,0,0-4.623-.691c-3.359,0-7.065,1.418-7.065,5.4,0,4.247,5.51,4.509,5.51,7.243,0,1.386-1.487,1.879-2.915,1.879a7.752,7.752,0,0,1-4.054-1.317M385.8,207.978l-0.951,3.359a11.567,11.567,0,0,0,3.169.461c3.581,0,5.195-2.438,6.493-4.746l11.059-19.521h-4.656l-6.5,12.61h-0.068l-1.52-12.61H388.49l2.885,17.781c-1.49,2.4-2.441,3.062-3.711,3.062a4.581,4.581,0,0,1-1.866-.4m-15.564-8.3-1.143,3.919a18.118,18.118,0,0,0,6.306,1.285c4.848,0,9.093-2.042,9.093-7.672,0-6.392-7.541-6.161-7.541-9.846,0-1.977,2.126-2.636,3.708-2.636a10.194,10.194,0,0,1,4.594,1.188l1.045-3.786a14.887,14.887,0,0,0-5.731-1.022c-4.25,0-8.243,2.107-8.243,6.947,0,6.129,7.544,5.467,7.544,9.613,0,2.471-2.091,3.588-4.215,3.588a12.743,12.743,0,0,1-5.417-1.578m-22.251-5.334c0.823-2.335,1.964-3.981,4.591-3.981,1.777,0,2.695,1.017,2.695,2.831a7.555,7.555,0,0,1-.092,1.15h-7.194Zm-4.627,3.129c0,5.035,3.167,7.409,7.861,7.409a17.443,17.443,0,0,0,5.195-.958l0.536-3.487a11.585,11.585,0,0,1-5,1.217c-2.918,0-4.532-1.152-4.532-4.281h11.5a18.832,18.832,0,0,0,.414-3.786c0-4.312-2.662-6.456-6.684-6.456-5.355,0-9.286,5.073-9.286,10.342m-13.781.1c0,4.382,2.722,7.308,6.937,7.308a8.878,8.878,0,0,0,4.09-.787l0.471-3.493a8.029,8.029,0,0,1-3.453.855c-2.915,0-3.611-2.2-3.611-4.413,0-3.19,1.9-6.48,5.295-6.48a5.572,5.572,0,0,1,3.1.854l1.045-3.623a14.539,14.539,0,0,0-4.247-.658c-5.859,0-9.629,4.511-9.629,10.437m-4.919-16.067L320,204.491h4.626l4.659-22.985h-4.629Zm50.083-64.85,4.16-13.339c-4.345-2.121-11.826-2.978-19.768-2.978-14.128,0-28.722,5.182-28.722,22.455,0,18.9,25.036,14.875,25.036,25.629,0,6.91-8.407,7.964-13.771,7.964-5.631,0-12.465-1.534-15.883-3.842l-4.065,13.632a69.72,69.72,0,0,0,19.948,3.451c14.966,0,31.491-4.8,31.491-23.318,0-20.345-25.017-16.793-25.017-26.3,0-5.375,5.537-6.433,12.365-6.433a31.312,31.312,0,0,1,14.226,3.076m46.273,16.028,3.6-11.993a42.749,42.749,0,0,0-15.146-3.363c-18.473,0-31.03,13.052-31.03,29.466,0,12.573,8.679,22.837,22.715,22.837,6.465,0,10.9-.764,14.231-1.917l2.4-12.959a25.006,25.006,0,0,1-10.718,2.207c-7.016,0-11.447-4.891-11.447-10.841,0-10.367,6.092-16.124,14.683-16.124a25,25,0,0,1,10.718,2.687m42.477,6.809c0,11.324-4.895,18.044-12.652,18.044-5.639.1-9.049-4.409-9.049-11.132,0-7.964,4.986-16.983,13.017-16.983,6.469,0,8.684,4.892,8.684,10.071m17.172,0.19c0-12.563-8.678-22.355-25.022-22.355-18.846,0-31.03,11.9-31.03,29.466,0,12.571,7.2,22.834,25.031,22.834,18,0,31.021-9.111,31.021-29.945m43.13-21.2H512.344l3.321-15.647-17.549,4.9-2.311,10.747h-9.5l-2.035,12.085h8.869l-2.869,14.017c-1.11,5.277-1.473,7.777-1.473,10.267,0,10.459,6.741,14.781,15.227,14.781a65.712,65.712,0,0,0,10.35-.954l1.845-11.43a15.749,15.749,0,0,1-5.35,1.443,5.172,5.172,0,0,1-5.455-5.565c0-2.4.647-4.889,1.381-8.642l2.869-13.917h12.1Zm35.74,13.143,3.5-11.321a53.307,53.307,0,0,0-15.967-2.975c-11.181,0-24.3,4.7-24.3,16.411,0,16.512,19.857,12.859,19.857,19.96,0,4.12-6.645,4.421-9.323,4.421a32.85,32.85,0,0,1-13.487-2.882l-3.326,11.8a73.407,73.407,0,0,0,20.228,2.592c12.473-.186,22.536-6.334,22.536-18.721,0-12.569-20.781-12.178-20.781-17.751,0-3.453,4.066-4.311,7.758-4.311a32.208,32.208,0,0,1,13.3,2.776m85.611,11.81a60.8,60.8,0,0,0,1.111-11.229c0-11.132-7.574-14.88-14.968-14.88-6.929,0-13.115,3.842-17.173,10.177-1.294-6.811-7.026-10.177-12.654-10.177-6.734,0-12.931,3.842-17,10.177l-0.173.095,1.842-9.116H571.351c-0.46,4.511-1.2,8.731-2.023,13.045l-7.489,36.95h16.62l4.716-23.028c1.113-5.378,2.955-13.729,9.883-13.729,3.879,0,5.358,1.931,5.358,5.184a38.068,38.068,0,0,1-.926,7.3l-4.805,24.278h16.622l4.708-23.028c1.119-5.378,2.958-13.729,9.886-13.729,3.879,0,5.358,1.931,5.358,5.184a38.132,38.132,0,0,1-.924,7.3l-4.8,24.278h16.623Zm38.6,2.876c-1.2,6.718-5.455,11.81-12.56,11.81a5.385,5.385,0,0,1-5.634-4.992c0-4.415,5.815-7.4,13.768-7.107a24.768,24.768,0,0,1,4.426.289m11.36,22.166c1.847-15.063,6.1-26.293,6.1-34.164,0-12.284-9.421-16.984-20.876-16.984a50.144,50.144,0,0,0-17.638,2.879l-1.655,12.58a29.286,29.286,0,0,1,15.6-3.939c5.455,0,8.865,2.873,8.865,6.426a7.59,7.59,0,0,1-.181,2.015c-2.311-.193-5.631-0.483-8.96-0.483-14.681,0-26.507,6.05-26.507,18.337,0,9.689,5.729,14.488,16.068,14.488,6.468,0,12.66-2.4,16.17-8.154v-0.195l0.184,0.195-0.742,7H695.1Zm63.63-23.315c1.011-5.288,1.284-7.2,1.284-10.559,0-9.79-5.262-17.277-14.965-17.277-8.759,0-13.754,3.748-18.551,9.313h-0.192l1.305-8.157H712.2c-0.48,4.511-1.208,8.731-2.045,13.045l-7.481,36.95H719.3l4.713-23.028c1.2-7.4,5.347-13.729,12.367-13.729,4.621-.193,6.463,2.785,6.463,5.757a41.974,41.974,0,0,1-1.1,7.585l-4.62,23.415H754.3Zm12.549-21.642h-0.961V122.25h0.772c0.4,0,.975.038,0.975,0.585,0,0.592-.295.684-0.786,0.684m2.024,3.12-1.3-2.3a1.219,1.219,0,0,0,1.213-1.383c0-1.209-.769-1.6-2.088-1.6H769.24v5.289h1.081v-2.22h0.517l1.171,2.22h1.3Zm1.181-2.632a3.519,3.519,0,0,1-3.381,3.783v-0.011a3.795,3.795,0,1,1,3.381-3.772m1.37,0a4.749,4.749,0,1,0-4.751,4.914,4.668,4.668,0,0,0,4.751-4.914" transform="translate(-320 -100.344)"/>
</svg>
